<?xml version="1.0" encoding="utf-8"?>
<!-- Generator: Adobe Illustrator 24.1.1, SVG Export Plug-In . SVG Version: 6.00 Build 0)  -->
<svg version="1.1" id="Layer_1" xmlns="http://www.w3.org/2000/svg" xmlns:xlink="http://www.w3.org/1999/xlink" x="0px" y="0px"
	 viewBox="0 0 182 36" style="enable-background:new 0 0 182 36;" xml:space="preserve">
<style type="text/css">
	.st0{display:none;}
	.st1{display:inline;}
	.st2{clip-path:url(#SVGID_2_);fill:url(#SVGID_3_);}
	.st3{fill:#00AEEF;}
	.st4{fill:#002F54;}
	.st5{display:inline;fill:#00AEEF;}
	.st6{clip-path:url(#SVGID_5_);fill:url(#SVGID_6_);}
</style>
<g id="Layer_1_1_" class="st0">
	<g class="st1">
		<g>
			<g>
				<g>
					<g>
						<defs>
							<path id="SVGID_1_" d="M22,29.5c2.4,0,4.6-0.4,6.6-1c0.5-0.2,1-0.4,1.4-0.6c-0.6,1.3-1.4,2.5-2.4,3.3c-2.1,1.5-4.5,2.6-7.2,3
								C21,33,21.6,31.4,22,29.5 M10.9,32.7c0,0-0.1-0.1-0.2-0.1c-0.9-0.5-1.3-2.5-0.8-5.7c1.8,0.8,3.7,1.4,5.8,1.9
								c1.5,0.3,3.1,0.5,4.6,0.6c-0.7,3.2-1.7,4.9-2.3,4.9h-0.1C15.4,34.3,13,33.7,10.9,32.7 M2.3,22.5C2.2,22,2.1,21.4,2,20.8
								c0.6,0.8,1.2,1.6,2,2.3c1.2,1.1,2.7,2.1,4.3,3C8,28,7.9,29.7,8.1,31C5.4,28.9,3.3,25.9,2.3,22.5 M23,18c0-0.7,0-1.3,0-2
								c2.1-0.1,4-0.7,5.6-1.6c1.5,2.9,2.2,5.9,2.2,8.8c0,0.8-0.1,1.6-0.2,2.4c-0.8,0.5-1.6,0.9-2.6,1.2c-1.7,0.6-3.7,0.9-5.7,0.9
								C22.8,24.8,23,21.4,23,18 M16,27.2c-2.1-0.4-4-1.1-5.8-1.9c0.6-2.6,1.7-5.8,3.4-9.3c0.2-0.5,0.5-1,0.8-1.5
								c1.2,0.5,2.5,1,3.9,1.3c1,0.2,2.1,0.3,3.1,0.4c0,0.6,0,1.3,0,1.9c0,3.9-0.3,7.2-0.8,9.7C19.1,27.7,17.6,27.5,16,27.2
								 M5.2,21.9c-1.4-1.3-2.4-2.7-2.9-4.1c0.4-1.5,1.2-3.1,2.3-4.6c1.1-1.4,2.4-2.7,3.9-3.8c0.4,0.8,1.1,1.6,1.8,2.3
								s1.6,1.3,2.6,1.9c-0.3,0.5-0.5,1-0.8,1.5c-1.5,3-2.7,6.3-3.4,9.2C7.4,23.7,6.2,22.9,5.2,21.9 M21.9,6.4
								c1.9,1.4,3.6,3.2,5.1,5.4c0.3,0.4,0.5,0.8,0.8,1.2c-1.3,0.8-3,1.2-4.8,1.4C22.8,11.5,22.5,8.7,21.9,6.4 M18.6,14.1
								c-1.2-0.3-2.4-0.6-3.4-1.1c1.6-2.7,3.3-5.1,4.9-6.9c0.5,2.1,1,4.8,1.2,8.3C20.4,14.4,19.5,14.3,18.6,14.1 M11.5,10.6
								c-0.7-0.6-1.2-1.3-1.6-2c1.6-0.9,3.3-1.7,5.1-2.3c1.1-0.3,2.2-0.6,3.3-0.7c-1.6,1.8-3.2,4.1-4.7,6.6
								C12.9,11.7,12.1,11.2,11.5,10.6 M7.9,5.3c0,0.1,0,0.2-0.1,0.3C7.6,6.4,7.7,7.2,7.8,8C6,9.2,4.4,10.7,3.2,12.4
								c-0.4,0.5-0.7,1-1,1.5C3.2,10.4,5.2,7.4,7.9,5.3 M9.4,5.9C9.6,5,10.2,4.2,11,3.6C12.9,3,15.2,3.2,17.6,4c-1,0.2-2,0.4-3,0.7
								C12.7,5.3,11,6,9.4,7C9.4,6.6,9.4,6.2,9.4,5.9 M23,3.7c0.6-0.4,1.1-0.6,1.5-0.7c0.8,0.3,1.7,0.8,2.5,1.3
								C25.7,3.9,24.4,3.8,23,3.7 M20.2,1.9c0.7,0.1,1.4,0.2,2.1,0.4c-0.5,0.3-0.9,0.6-1.4,0.9C20.7,2.7,20.4,2.3,20.2,1.9
								 M18.4,2.6c-0.8-0.3-1.5-0.5-2.2-0.7c0.6-0.1,1.2-0.1,1.8-0.1c0.3,0,0.6,0.3,1,1C18.7,2.7,18.6,2.6,18.4,2.6 M0,18.1
								c0,1.7,0.2,3.4,0.7,4.9c0,0.1,0.1,0.2,0.1,0.3c0,0,0,0,0,0.1C3.1,30.7,9.9,36,17.9,36c3.7,0,7.2-1.1,10.1-3.1h0.1
								c0.2-0.1,0.3-0.2,0.5-0.4c3.3-2.4,5.7-6,6.8-10.1c0.1-0.2,0.1-0.4,0.2-0.6v-0.1c0.2-1.2,0.4-2.4,0.4-3.6c0-2.4-0.5-4.8-1.4-7
								c-0.2-0.4-0.7-0.6-1.1-0.4c-0.4,0.2-0.6,0.7-0.4,1.1c0.8,2,1.3,4.1,1.3,6.3c0,1.3-0.2,2.7-0.5,3.9c-0.2,0.8-0.7,1.5-1.3,2.2
								c0-0.3,0-0.6,0-0.9c0-3.2-0.9-6.6-2.5-9.8c1.2-1,2-2.3,2.2-3.7c0.1-0.5-0.2-0.9-0.7-1s-0.9,0.2-1,0.7
								c-0.2,0.9-0.7,1.8-1.4,2.5c-0.2-0.4-0.5-0.8-0.8-1.2c-1.5-2.1-3.2-4-5.1-5.5c2.5,0.2,4.8,0.8,6.7,1.8c0.3,0.2,0.7,0.2,1-0.1
								c0.4-0.3,0.4-0.8,0.1-1.2C28.4,2,23.8,0,18,0C8.1,0.1,0,8.2,0,18.1"/>
						</defs>
						<clipPath id="SVGID_2_">
							<use xlink:href="#SVGID_1_"  style="overflow:visible;"/>
						</clipPath>
						
							<radialGradient id="SVGID_3_" cx="-1371.8899" cy="-301.2" r="0.4894" gradientTransform="matrix(60.7425 0 0 60.7427 83366.3281 18302.4902)" gradientUnits="userSpaceOnUse">
							<stop  offset="0" style="stop-color:#FFFFFF"/>
							<stop  offset="5.980000e-02" style="stop-color:#E7F6FD"/>
							<stop  offset="0.1829" style="stop-color:#AFE2FA"/>
							<stop  offset="0.3589" style="stop-color:#37C6F4"/>
							<stop  offset="0.544" style="stop-color:#00AEEF"/>
							<stop  offset="1" style="stop-color:#002F54"/>
						</radialGradient>
						<rect y="0.1" class="st2" width="35.9" height="35.9"/>
					</g>
				</g>
			</g>
		</g>
		<g>
			<path class="st3" d="M43,29v-6.1h1.2V29H43z"/>
			<path class="st3" d="M45.3,29v-6.1h2.3c1.2,0,2,0.5,2,1.6s-0.6,1.3-0.9,1.3l0,0c0.4,0,1.4,0.4,1.4,1.5c0,1.3-1,1.7-2.1,1.7
				C47.9,29,45.3,29,45.3,29z M47.5,25.4c0.7,0,0.9-0.3,0.9-0.8s-0.3-0.8-1-0.8h-0.8v1.6C46.5,25.4,47.5,25.4,47.5,25.4z M47.6,28
				c0.6,0,1.1-0.2,1.1-0.9c0-0.6-0.5-0.9-1.1-0.9h-1.1V28H47.6z"/>
			<path class="st3" d="M55.8,29c0,0-0.2,0.1-0.6,0.1c-1.8,0-1.3-2.3-2.6-2.3H52V29h-1.2v-6.1h2.1c1.5,0,2.3,0.5,2.3,1.9
				c0,0.9-0.6,1.4-1.1,1.5c0.6,0.5,0.7,1.7,1.5,1.7h0.3L55.8,29L55.8,29z M52.7,25.8c0.7,0,1.3-0.3,1.3-1c0-0.6-0.4-1-1.2-1h-0.9
				v1.9h0.8V25.8z"/>
			<path class="st3" d="M56.3,29v-6.1h1.8c1.6,0,3,0.9,3,3.2c0,2.2-1.3,2.9-2.8,2.9H56.3L56.3,29z M58.4,28c0.9,0,1.6-0.7,1.6-2
				c0-1.4-0.6-2.2-1.9-2.2h-0.6V28H58.4z"/>
			<path class="st3" d="M64.7,27.6c-0.6,0-1.1-0.5-1.1-1.1s0.5-1.1,1.1-1.1s1.1,0.5,1.1,1.1C65.9,27.1,65.3,27.6,64.7,27.6z"/>
			<path class="st3" d="M68.6,29v-6.1h1.2V29H68.6z"/>
			<path class="st3" d="M70.8,29v-6.1h1.8c1.6,0,3,0.9,3,3.2c0,2.2-1.3,2.9-2.8,2.9H70.8L70.8,29z M72.9,28c0.9,0,1.6-0.7,1.6-2
				c0-1.4-0.6-2.2-1.9-2.2H72V28H72.9z"/>
			<path class="st3" d="M79.6,27.5h-2.2L77,29h-1.3l2.2-6.1h1.2l2.2,6.1h-1.2L79.6,27.5z M77.8,26.6h1.5l-0.8-2.2L77.8,26.6z"/>
		</g>
		<g>
			<path class="st4" d="M39.8,8.1h9.1V10h-3.3v9.3h-2.4V10h-3.3L39.8,8.1L39.8,8.1z"/>
			<path class="st4" d="M50.2,19.3V8.1h2.4v4.4h4.2V8.1h2.4v11.2h-2.4v-4.9h-4.3v4.9H50.2z"/>
			<path class="st4" d="M61.2,8.1h7.5V10h-5.1v2.6h4.8v1.9h-4.8v3h5.3v1.9h-7.7V8.1L61.2,8.1z"/>
			<path class="st4" d="M80.6,8.1h2.7l2,8.4l0,0l1.8-8.4h2.3l-2.8,11.2h-2.7l-2-8.5l0,0l-2.2,8.5H77L74.2,8.1h2.5l1.7,8.4l0,0
				L80.6,8.1z"/>
			<path class="st4" d="M90.2,13.7c0-3.3,1.7-5.8,5.4-5.8c3.7,0,5.4,2.5,5.4,5.8s-1.7,5.8-5.4,5.8C91.9,19.5,90.2,17,90.2,13.7z
				 M92.8,13.7c0,1.9,0.4,4.1,2.8,4.1s2.8-2.2,2.8-4.1S98,9.6,95.6,9.6C93.2,9.6,92.8,11.8,92.8,13.7z"/>
			<path class="st4" d="M105,19.3h-2.4V8.1h4.8c1.9,0,3.9,0.6,3.9,2.9c0,1.5-0.9,2.4-2.3,2.7l0,0c1.8,0.2,1.8,1.3,2,2.9
				c0.1,0.7,0.2,2,0.6,2.6H109c-0.2-1-0.3-2-0.4-3c-0.1-0.6-0.2-1.5-1-1.5H105V19.3L105,19.3z M105,12.9h2c1.1,0,1.7-0.5,1.7-1.5
				S108.1,10,107,10h-2V12.9z"/>
			<path class="st4" d="M113,19.3V8.1h2.4v9.3h4.8v1.9C120.2,19.3,113,19.3,113,19.3z"/>
			<path class="st4" d="M121.6,8.1h3.8c3.5,0,5.7,1.7,5.7,5.6s-2.2,5.6-5.7,5.6h-3.8L121.6,8.1L121.6,8.1z M124,17.4h1.2
				c2.9,0,3.3-2,3.3-3.7c0-1.8-0.4-3.8-3.3-3.7H124V17.4z"/>
			<path class="st4" d="M137.1,19.3V8.1h4.2c2-0.1,4,0.7,4,2.9c0,1.2-0.9,2.1-2,2.4l0,0c1.4,0.3,2.5,1.3,2.5,2.9
				c0,2.2-2.8,3-4.5,2.9C141.4,19.3,137.1,19.3,137.1,19.3z M141.4,17.4c1.1,0,1.9-0.2,1.9-1.5s-0.8-1.5-1.9-1.5h-1.9v3H141.4
				L141.4,17.4z M141.4,12.6c1,0,1.6-0.4,1.6-1.3c0-0.9-0.6-1.3-1.6-1.3h-1.9v2.6H141.4L141.4,12.6z"/>
			<path class="st4" d="M146.6,19.3l4-11.2h2.9l3.9,11.2H155l-0.8-2.4h-4.4l-0.8,2.4C148.9,19.3,146.6,19.3,146.6,19.3z M153.6,15.1
				l-1.5-4.8l0,0l-1.6,4.8H153.6z"/>
			<path class="st4" d="M165.3,19.3l-4.4-9.3l0,0v9.3h-2.2V8.1h3.6l4.3,8.8l0,0V8.1h2.2v11.2H165.3z"/>
			<path class="st4" d="M173.1,12.9L173.1,12.9l3.7-4.8h2.8l-4.1,5l4.5,6.2h-3l-3.9-5.7l0,0v5.7h-2.4V8.1h2.4V12.9L173.1,12.9z"/>
		</g>
	</g>
</g>
<g id="Layer_1_copy">
	<g class="st0">
		<path class="st5" d="M43,29v-6.1h1.2V29H43z"/>
		<path class="st5" d="M45.3,29v-6.1h2.3c1.2,0,2,0.5,2,1.6s-0.6,1.3-0.9,1.3l0,0c0.4,0,1.4,0.4,1.4,1.5c0,1.3-1,1.7-2.1,1.7
			C47.9,29,45.3,29,45.3,29z M47.5,25.4c0.7,0,0.9-0.3,0.9-0.8s-0.3-0.8-1-0.8h-0.8v1.6C46.5,25.4,47.5,25.4,47.5,25.4z M47.6,28
			c0.6,0,1.1-0.2,1.1-0.9c0-0.6-0.5-0.9-1.1-0.9h-1.1V28H47.6z"/>
		<path class="st5" d="M55.8,29c0,0-0.2,0.1-0.6,0.1c-1.8,0-1.3-2.3-2.6-2.3H52V29h-1.2v-6.1h2.1c1.5,0,2.3,0.5,2.3,1.9
			c0,0.9-0.6,1.4-1.1,1.5c0.6,0.5,0.7,1.7,1.5,1.7h0.3L55.8,29L55.8,29z M52.7,25.8c0.7,0,1.3-0.3,1.3-1c0-0.6-0.4-1-1.2-1h-0.9v1.9
			h0.8V25.8z"/>
		<path class="st5" d="M56.3,29v-6.1h1.8c1.6,0,3,0.9,3,3.2c0,2.2-1.3,2.9-2.8,2.9H56.3L56.3,29z M58.4,28c0.9,0,1.6-0.7,1.6-2
			c0-1.4-0.6-2.2-1.9-2.2h-0.6V28H58.4z"/>
		<path class="st5" d="M64.7,27.6c-0.6,0-1.1-0.5-1.1-1.1s0.5-1.1,1.1-1.1s1.1,0.5,1.1,1.1C65.9,27.1,65.3,27.6,64.7,27.6z"/>
		<path class="st5" d="M68.6,29v-6.1h1.2V29H68.6z"/>
		<path class="st5" d="M70.8,29v-6.1h1.8c1.6,0,3,0.9,3,3.2c0,2.2-1.3,2.9-2.8,2.9H70.8L70.8,29z M72.9,28c0.9,0,1.6-0.7,1.6-2
			c0-1.4-0.6-2.2-1.9-2.2H72V28H72.9z"/>
		<path class="st5" d="M79.6,27.5h-2.2L77,29h-1.3l2.2-6.1h1.2l2.2,6.1h-1.2L79.6,27.5z M77.8,26.6h1.5l-0.8-2.2L77.8,26.6z"/>
	</g>
	<g>
		<g>
			<g>
				<defs>
					<path id="SVGID_4_" d="M25.6,29.1c2.3,0,4.4-0.4,6.3-1c0.5-0.2,1-0.4,1.3-0.6c-0.6,1.2-1.3,2.4-2.3,3.2c-2,1.4-4.3,2.5-6.9,2.9
						C24.7,32.4,25.2,30.9,25.6,29.1 M15,32.1c0,0-0.1-0.1-0.2-0.1c-0.9-0.5-1.2-2.4-0.8-5.5c1.7,0.8,3.6,1.3,5.6,1.8
						c1.4,0.3,3,0.5,4.4,0.6c-0.7,3.1-1.6,4.7-2.2,4.7h-0.1C19.3,33.7,17,33.1,15,32.1 M6.7,22.3c-0.1-0.5-0.2-1.1-0.3-1.6
						c0.6,0.8,1.2,1.5,1.9,2.2c1.2,1.1,2.6,2,4.1,2.9c-0.3,1.8-0.4,3.5-0.2,4.7C9.7,28.5,7.6,25.6,6.7,22.3 M26.6,18
						c0-0.7,0-1.2,0-1.9c2-0.1,3.8-0.7,5.4-1.5c1.4,2.8,2.1,5.7,2.1,8.5c0,0.8-0.1,1.5-0.2,2.3c-0.8,0.5-1.5,0.9-2.5,1.2
						c-1.6,0.6-3.6,0.9-5.5,0.9C26.4,24.5,26.6,21.3,26.6,18 M19.9,26.8c-2-0.4-3.8-1.1-5.6-1.8c0.6-2.5,1.6-5.6,3.3-8.9
						c0.2-0.5,0.5-1,0.8-1.4c1.2,0.5,2.4,1,3.7,1.2c1,0.2,2,0.3,3,0.4c0,0.6,0,1.2,0,1.8c0,3.7-0.3,6.9-0.8,9.3
						C22.8,27.3,21.4,27.1,19.9,26.8 M9.5,21.7c-1.3-1.2-2.3-2.6-2.8-3.9c0.4-1.4,1.2-3,2.2-4.4c1.1-1.3,2.3-2.6,3.7-3.7
						c0.4,0.8,1.1,1.5,1.7,2.2c0.7,0.7,1.5,1.2,2.5,1.8c-0.3,0.5-0.5,1-0.8,1.4c-1.4,2.9-2.6,6.1-3.3,8.8
						C11.6,23.5,10.4,22.7,9.5,21.7 M25.5,6.8c1.8,1.3,3.5,3.1,4.9,5.2c0.3,0.4,0.5,0.8,0.8,1.2c-1.2,0.8-2.9,1.2-4.6,1.3
						C26.4,11.8,26.1,9.1,25.5,6.8 M22.4,14.3c-1.2-0.3-2.3-0.6-3.3-1.1c1.5-2.6,3.2-4.9,4.7-6.6c0.5,2,1,4.6,1.2,8
						C24.1,14.5,23.2,14.4,22.4,14.3 M15.5,10.9C14.9,10.3,14.4,9.6,14,9c1.5-0.9,3.2-1.6,4.9-2.2C20,6.5,21,6.2,22.1,6.1
						c-1.5,1.7-3.1,3.9-4.5,6.3C16.9,11.9,16.1,11.5,15.5,10.9 M12.1,5.8c0,0.1,0,0.2-0.1,0.3c-0.2,0.8-0.1,1.5,0,2.3
						c-1.7,1.2-3.3,2.6-4.4,4.2c-0.4,0.5-0.7,1-1,1.4C7.5,10.7,9.5,7.8,12.1,5.8 M13.5,6.4c0.2-0.9,0.8-1.6,1.5-2.2
						c1.8-0.6,4-0.4,6.3,0.4c-1,0.2-1.9,0.4-2.9,0.7c-1.8,0.6-3.5,1.2-5,2.2C13.5,7,13.5,6.7,13.5,6.4 M26.6,4.3
						c0.6-0.4,1.1-0.6,1.4-0.7c0.8,0.3,1.6,0.8,2.4,1.2C29.2,4.4,27.9,4.3,26.6,4.3 M23.9,2.5c0.7,0.1,1.3,0.2,2,0.4
						c-0.5,0.3-0.9,0.6-1.3,0.9C24.4,3.3,24.1,2.9,23.9,2.5 M22.2,3.2c-0.8-0.3-1.4-0.5-2.1-0.7c0.6-0.1,1.2-0.1,1.7-0.1
						c0.3,0,0.6,0.3,1,1C22.5,3.3,22.4,3.2,22.2,3.2 M4.5,18.1c0,1.6,0.2,3.3,0.7,4.7c0,0.1,0.1,0.2,0.1,0.3c0,0,0,0,0,0.1
						c2.2,7,8.7,12.1,16.4,12.1c3.6,0,6.9-1.1,9.7-3h0.1c0.2-0.1,0.3-0.2,0.5-0.4c3.2-2.3,5.5-5.8,6.5-9.7c0.1-0.2,0.1-0.4,0.2-0.6
						v-0.1c0.2-1.2,0.4-2.3,0.4-3.5c0-2.3-0.5-4.6-1.3-6.7c-0.2-0.4-0.7-0.6-1.1-0.4c-0.4,0.2-0.6,0.7-0.4,1.1
						c0.8,1.9,1.2,3.9,1.2,6.1c0,1.2-0.2,2.6-0.5,3.7c-0.2,0.8-0.7,1.4-1.2,2.1c0-0.3,0-0.6,0-0.9c0-3.1-0.9-6.3-2.4-9.4
						c1.2-1,1.9-2.2,2.1-3.6c0.1-0.5-0.2-0.9-0.7-1c-0.5-0.1-0.9,0.2-1,0.7c-0.2,0.9-0.7,1.7-1.3,2.4c-0.2-0.4-0.5-0.8-0.8-1.2
						c-1.4-2-3.1-3.8-4.9-5.3c2.4,0.2,4.6,0.8,6.4,1.7c0.3,0.2,0.7,0.2,1-0.1c0.4-0.3,0.4-0.8,0.1-1.2c-2.6-3.7-7-5.6-12.6-5.6
						C12.3,0.8,4.5,8.6,4.5,18.1"/>
				</defs>
				<clipPath id="SVGID_5_">
					<use xlink:href="#SVGID_4_"  style="overflow:visible;"/>
				</clipPath>
				
					<radialGradient id="SVGID_6_" cx="-1371.838" cy="-301.1928" r="0.4705" gradientTransform="matrix(60.7425 0 0 60.7427 83366.3281 18302.4902)" gradientUnits="userSpaceOnUse">
					<stop  offset="0" style="stop-color:#FFFFFF"/>
					<stop  offset="5.980001e-02" style="stop-color:#E7F6FD"/>
					<stop  offset="0.1829" style="stop-color:#AFE2FA"/>
					<stop  offset="0.3589" style="stop-color:#37C6F4"/>
					<stop  offset="0.544" style="stop-color:#00AEEF"/>
					<stop  offset="1" style="stop-color:#002F54"/>
				</radialGradient>
				<rect x="4.5" y="0.8" class="st6" width="34.5" height="34.5"/>
			</g>
		</g>
		<g>
			<path class="st4" d="M42.7,8.5h8.7v1.8h-3.2v8.9H46v-8.9h-3.2L42.7,8.5L42.7,8.5z"/>
			<path class="st4" d="M52.7,19.2V8.5H55v4.2h4V8.5h2.3v10.8h-2.3v-4.7h-4.1v4.7H52.7z"/>
			<path class="st4" d="M63.3,8.5h7.2v1.8h-4.9v2.5h4.6v1.8h-4.6v2.9h5.1v1.8h-7.4V8.5L63.3,8.5z"/>
			<path class="st4" d="M82,8.5h2.6l1.9,8.1l0,0l1.7-8.1h2.2l-2.7,10.8h-2.6l-1.9-8.2l0,0l-2.1,8.2h-2.6L75.8,8.5h2.4l1.6,8.1l0,0
				L82,8.5z"/>
			<path class="st4" d="M91.2,13.9c0-3.2,1.6-5.6,5.2-5.6s5.2,2.4,5.2,5.6s-1.6,5.6-5.2,5.6C92.8,19.4,91.2,17,91.2,13.9z
				 M93.7,13.9c0,1.8,0.4,3.9,2.7,3.9s2.7-2.1,2.7-3.9c0-1.8-0.4-3.9-2.7-3.9C94.1,9.9,93.7,12,93.7,13.9z"/>
			<path class="st4" d="M105.4,19.2h-2.3V8.5h4.6c1.8,0,3.7,0.6,3.7,2.8c0,1.4-0.9,2.3-2.2,2.6l0,0c1.7,0.2,1.7,1.2,1.9,2.8
				c0.1,0.7,0.2,1.9,0.6,2.5h-2.5c-0.2-1-0.3-1.9-0.4-2.9c-0.1-0.6-0.2-1.4-1-1.4h-2.5V19.2L105.4,19.2z M105.4,13.1h1.9
				c1.1,0,1.6-0.5,1.6-1.4s-0.6-1.3-1.6-1.3h-1.9V13.1z"/>
			<path class="st4" d="M113.1,19.2V8.5h2.3v8.9h4.6v1.8C120,19.2,113.1,19.2,113.1,19.2z"/>
			<path class="st4" d="M121.4,8.5h3.7c3.4,0,5.5,1.6,5.5,5.4s-2.1,5.4-5.5,5.4h-3.7L121.4,8.5L121.4,8.5z M123.7,17.4h1.2
				c2.8,0,3.2-1.9,3.2-3.6c0-1.7-0.4-3.7-3.2-3.6h-1.2V17.4z"/>
			<path class="st4" d="M136.3,19.2V8.5h4c1.9-0.1,3.8,0.7,3.8,2.8c0,1.2-0.9,2-1.9,2.3l0,0c1.3,0.3,2.4,1.2,2.4,2.8
				c0,2.1-2.7,2.9-4.3,2.8C140.4,19.2,136.3,19.2,136.3,19.2z M140.4,17.4c1.1,0,1.8-0.2,1.8-1.4c0-1.2-0.8-1.4-1.8-1.4h-1.8v2.9
				H140.4L140.4,17.4z M140.4,12.8c1,0,1.5-0.4,1.5-1.2s-0.6-1.2-1.5-1.2h-1.8v2.5H140.4L140.4,12.8z"/>
			<path class="st4" d="M145.4,19.2l3.8-10.8h2.8l3.7,10.8h-2.3l-0.8-2.3h-4.2l-0.8,2.3C147.6,19.2,145.4,19.2,145.4,19.2z
				 M152.1,15.2l-1.4-4.6l0,0l-1.5,4.6H152.1z"/>
			<path class="st4" d="M163.4,19.2l-4.2-8.9l0,0v8.9h-2.1V8.5h3.5l4.1,8.5l0,0V8.5h2.1v10.8H163.4z"/>
			<path class="st4" d="M170.9,13.1L170.9,13.1l3.6-4.6h2.7l-3.9,4.8l4.3,6h-2.9l-3.7-5.5l0,0v5.5h-2.3V8.5h2.3V13.1L170.9,13.1z"/>
		</g>
	</g>
</g>
</svg>
