<?xml version="1.0" encoding="utf-8"?>
<!-- Generator: Adobe Illustrator 24.3.0, SVG Export Plug-In . SVG Version: 6.00 Build 0)  -->
<svg version="1.1" id="Layer_1" xmlns="http://www.w3.org/2000/svg" xmlns:xlink="http://www.w3.org/1999/xlink" x="0px" y="0px"
	 viewBox="0 0 291 49.4" style="enable-background:new 0 0 291 49.4;" xml:space="preserve">
<style type="text/css">
	.st0{enable-background:new    ;}
	.st1{fill:#151846;}
	.st2{fill:#4250EC;}
</style>
<g>
	<g class="st0">
		<path class="st1" d="M65.3,18.5h18v3.3h-7.2V45h7.2v3.3h-18V45h7V21.8h-7V18.5z"/>
		<path class="st1" d="M98.1,26.1l0.3,3.3c0.8-1.1,1.8-2,3-2.7c1.2-0.6,2.5-1,3.9-1c1.2,0,2.2,0.2,3.2,0.5s1.8,0.8,2.4,1.5
			s1.2,1.6,1.5,2.7c0.4,1.1,0.5,2.3,0.5,3.8v14.1h-3.8v-14c0-1-0.1-1.8-0.3-2.5c-0.2-0.7-0.5-1.2-1-1.7s-1-0.7-1.6-0.9
			c-0.6-0.2-1.3-0.3-2.1-0.3c-1.3,0-2.4,0.3-3.4,1c-1,0.6-1.7,1.5-2.3,2.5v15.9h-3.8V26.1H98.1z"/>
		<path class="st1" d="M129.8,48.3V29h-6.1v-2.9h6.1v-1.6c0-1.4,0.2-2.7,0.6-3.7s1-2,1.8-2.7s1.7-1.3,2.7-1.6
			c1.1-0.4,2.3-0.6,3.6-0.6c0.9,0,1.8,0.1,2.6,0.2s1.7,0.3,2.6,0.6l-0.5,3.1c-0.6-0.2-1.2-0.4-2-0.5c-0.7-0.1-1.5-0.2-2.4-0.2
			c-1.8,0-3.1,0.5-4,1.4c-0.9,0.9-1.3,2.2-1.3,4.1v1.6h8.6v2.9h-8.6v19.2H129.8z"/>
		<path class="st1" d="M152.5,37c0-1.6,0.2-3.1,0.7-4.5c0.5-1.4,1.1-2.6,2-3.6s1.9-1.8,3.2-2.4c1.2-0.6,2.6-0.9,4.2-0.9
			c1.6,0,3,0.3,4.2,0.9c1.3,0.6,2.3,1.4,3.2,2.4s1.5,2.2,2,3.6c0.5,1.4,0.7,2.9,0.7,4.5v0.5c0,1.6-0.2,3.1-0.7,4.5s-1.1,2.6-2,3.6
			s-1.9,1.8-3.2,2.4s-2.6,0.9-4.2,0.9c-1.6,0-3-0.3-4.2-0.9s-2.3-1.4-3.2-2.4s-1.5-2.2-2-3.6s-0.7-2.9-0.7-4.5V37z M156.3,37.5
			c0,1.1,0.1,2.1,0.4,3.1s0.7,1.9,1.2,2.6s1.2,1.3,2,1.8s1.7,0.7,2.8,0.7c1,0,2-0.2,2.7-0.7s1.4-1,2-1.8s0.9-1.6,1.2-2.6
			s0.4-2,0.4-3.1V37c0-1.1-0.1-2.1-0.4-3.1s-0.7-1.9-1.2-2.6c-0.5-0.8-1.2-1.3-2-1.8c-0.8-0.4-1.7-0.7-2.8-0.7s-2,0.2-2.7,0.7
			c-0.8,0.4-1.4,1-2,1.8c-0.5,0.8-0.9,1.6-1.2,2.6s-0.4,2-0.4,3.1V37.5z"/>
	</g>
	<g class="st0">
		<path class="st2" d="M201.6,48.3h-3.9L186.1,26v22.3h-3.8V18.5h3.9l11.6,22.3l0.1-22.3h3.8v29.9H201.6z"/>
		<path class="st2" d="M212.9,26.1h11.3V45h7.2v3.3h-18.6V45h7.5V29.5h-7.5v-3.3H212.9z M220,20.3c0-0.6,0.2-1.2,0.6-1.6
			c0.4-0.4,0.9-0.6,1.7-0.6s1.3,0.2,1.7,0.6c0.4,0.4,0.6,1,0.6,1.6c0,0.6-0.2,1.1-0.6,1.5c-0.4,0.4-1,0.6-1.7,0.6
			c-0.8,0-1.3-0.2-1.7-0.6C220.2,21.5,220,21,220,20.3z"/>
		<path class="st2" d="M242.3,16.8h11.3V45h7.2v3.3h-18.6V45h7.5V20.1h-7.5L242.3,16.8L242.3,16.8z"/>
		<path class="st2" d="M280.9,48.8c-1.6,0-3-0.3-4.3-0.8s-2.4-1.3-3.4-2.2s-1.7-2.1-2.2-3.4s-0.8-2.7-0.8-4.3v-0.9
			c0-1.8,0.3-3.4,0.9-4.8s1.3-2.6,2.3-3.6s2-1.7,3.2-2.2s2.5-0.8,3.7-0.8c1.6,0,3,0.3,4.2,0.8c1.2,0.6,2.2,1.3,3,2.3
			s1.4,2.1,1.8,3.5c0.4,1.3,0.6,2.8,0.6,4.3v1.7H274c0,1,0.2,2,0.6,2.9s0.8,1.7,1.4,2.3c0.6,0.7,1.3,1.2,2.2,1.6s1.8,0.6,2.8,0.6
			c1.4,0,2.6-0.3,3.6-0.8s1.9-1.3,2.6-2.2l2.3,1.8c-0.4,0.6-0.8,1.1-1.4,1.6s-1.2,1-1.9,1.4s-1.5,0.7-2.5,1
			C283,48.6,282,48.8,280.9,48.8z M280.5,28.8c-0.8,0-1.5,0.1-2.2,0.4s-1.3,0.7-1.8,1.2s-1,1.2-1.4,2s-0.6,1.7-0.8,2.7h11.9v-0.3
			c0-0.7-0.2-1.5-0.4-2.2s-0.6-1.4-1.1-1.9s-1-1-1.8-1.4C282.1,29,281.4,28.8,280.5,28.8z"/>
	</g>
	<path class="st1" d="M28.1,2.3c3.5,0,6.4,2.9,6.4,6.4c0,1.1-0.3,2.1-0.9,3.3l0,0l0,0c-0.1,0.1-0.2,0.3-0.2,0.4l1,2
		c0.4-0.4,0.8-0.9,1-1.4c0.8-1.5,1.1-2.8,1.1-4.2c0-4.6-3.8-8.4-8.4-8.4c-3.2,0-5.9,1.8-7.4,4.3l2.1,0.4C24,3.4,25.9,2.3,28.1,2.3z"
		/>
	<path class="st1" d="M25.9,9.7C26,9.9,26,10,26.1,10.1c0.5,0.7,1.3,1.2,2.1,1.2h0.1c0.7,0,1.3-0.4,1.8-0.9c0.1-0.1,0.2-0.2,0.3-0.3
		c0.2-0.4,0.3-0.8,0.3-1.3c0-1.4-1.1-2.5-2.5-2.5c-1,0-1.8,0.6-2.2,1.4c-0.2,0.3-0.3,0.7-0.3,1.1C25.7,9.1,25.8,9.4,25.9,9.7z"/>
	<path class="st2" d="M38.1,19c-0.2,0-0.4,0-0.6,0.1L35,20l-4.8-9.5c-0.5,0.5-1.2,0.9-1.9,0.9l5.6,11L38,21l-6.2,8.3l1.2,6.4
		l-7.3,10.1h-5.2L17.1,25H7.2L3,15.2l6.5-8.7l16.4,3.2c-0.1-0.3-0.2-0.6-0.2-0.9c0-0.4,0.1-0.8,0.3-1.1L9.9,4.6c-0.1,0-0.3,0-0.4,0
		C8.9,4.5,8.3,4.8,7.9,5.3L1.4,14c-0.4,0.6-0.5,1.3-0.2,2l4.2,9.8c0.3,0.7,1,1.2,1.8,1.2h8.2l3.1,19.1c0.2,1,1,1.7,2,1.7h5.2
		c0.6,0,1.2-0.3,1.6-0.8L34.6,37c0.3-0.4,0.4-1,0.4-1.5l-1-5.6l5.7-7.6c0.5-0.7,0.5-1.7,0-2.4C39.3,19.3,38.7,19,38.1,19z"/>
</g>
</svg>
